<svg width="24" height="24" viewBox="0 0 24 24" fill="none" xmlns="http://www.w3.org/2000/svg">
<mask id="mask0_412190_3851" style="mask-type:alpha" maskUnits="userSpaceOnUse" x="0" y="0" width="24" height="24">
<rect width="24" height="24" fill="#D9D9D9"/>
</mask>
<g mask="url(#mask0_412190_3851)">
<path d="M9.55058 15.15L18.0256 6.675C18.2256 6.475 18.4631 6.375 18.7381 6.375C19.0131 6.375 19.2506 6.475 19.4506 6.675C19.6506 6.875 19.7506 7.1125 19.7506 7.3875C19.7506 7.6625 19.6506 7.9 19.4506 8.1L10.2506 17.3C10.0506 17.5 9.81724 17.6 9.55058 17.6C9.28391 17.6 9.05058 17.5 8.85058 17.3L4.55058 13C4.35058 12.8 4.25474 12.5625 4.26308 12.2875C4.27141 12.0125 4.37558 11.775 4.57558 11.575C4.77558 11.375 5.01308 11.275 5.28808 11.275C5.56308 11.275 5.80058 11.375 6.00058 11.575L9.55058 15.15Z" fill="white"/>
</g>
</svg>
