<svg width="19" height="19" viewBox="0 0 19 19" fill="none" xmlns="http://www.w3.org/2000/svg">
<g clip-path="url(#clip0_413723_8302)">
<path d="M18.9 0V1.69C18.9017 2.31796 18.7788 2.94002 18.5385 3.52019C18.2982 4.10036 17.9452 4.62712 17.5 5.07L5.07 17.5C4.62712 17.9452 4.10036 18.2982 3.52019 18.5385C2.94002 18.7788 2.31796 18.9017 1.69 18.9H0L18.9 0Z" fill="#D1D1D1"/>
<path d="M18.9001 6.31006V8.00006C18.9006 8.62786 18.7772 9.2496 18.537 9.82961C18.2967 10.4096 17.9444 10.9365 17.5001 11.3801L11.3801 17.5001C10.9365 17.9444 10.4096 18.2967 9.82961 18.537C9.2496 18.7772 8.62786 18.9006 8.00006 18.9001H6.31006L18.9001 6.31006Z" fill="#D1D1D1"/>
<path d="M18.9002 12.4301V14.1201C18.9007 14.7479 18.7773 15.3696 18.5371 15.9496C18.2969 16.5296 17.9445 17.0565 17.5002 17.5001C17.0566 17.9444 16.5297 18.2967 15.9497 18.537C15.3697 18.7772 14.748 18.9006 14.1202 18.9001H12.4302L18.9002 12.4301Z" fill="#D1D1D1"/>
</g>
<defs>
<clipPath id="clip0_413723_8302">
<rect width="18.9" height="18.9" fill="white"/>
</clipPath>
</defs>
</svg>
